<svg xmlns="http://www.w3.org/2000/svg" width="960" height="540" viewBox="0 0 960 540"><defs><radialGradient id="g"><stop stop-color="#324b92"/><stop offset="1" stop-color="#171b22"/></radialGradient></defs><rect width="960" height="540" fill="#171b22"/><circle cx="650" cy="270" r="250" fill="url(#g)"/><g stroke="#5f7ed8" fill="none"><circle cx="650" cy="270" r="180" stroke-dasharray="3 9"/><circle cx="650" cy="270" r="110"/><path d="M650 270 530 155M650 270 780 160M650 270 815 310M650 270 680 430M650 270 470 340"/></g><g fill="#91a7ff"><circle cx="650" cy="270" r="46"/><circle cx="530" cy="155" r="16"/><circle cx="780" cy="160" r="20"/><circle cx="815" cy="310" r="14"/></g><g fill="#79d8bf"><circle cx="680" cy="430" r="20"/><circle cx="470" cy="340" r="17"/></g><g font-family="sans-serif"><text x="650" y="282" text-anchor="middle" fill="#172039" font-size="32">AI</text><text x="66" y="128" fill="#91a7ff" font-size="17" letter-spacing="4">HW02 / AI SHIFT</text><text x="62" y="248" fill="#f6f8fa" font-size="70" font-weight="700">智变</text><text x="66" y="312" fill="#b9c2d0" font-size="25">从智能，到生产力。</text><text x="66" y="442" fill="#99a5b7" font-size="13" letter-spacing="3">DATA · MECHANISMS · EXPERIMENTS</text></g></svg>
